<?xml version="1.0" standalone="no"?>
<!DOCTYPE svg PUBLIC "-//W3C//DTD SVG 20010904//EN"
 "http://www.w3.org/TR/2001/REC-SVG-20010904/DTD/svg10.dtd">
<svg version="1.0" xmlns="http://www.w3.org/2000/svg"
 width="1380.000000pt" height="1380.000000pt" viewBox="0 0 1380.000000 1380.000000"
 preserveAspectRatio="xMidYMid meet">
<metadata>
Created by potrace 1.14, written by Peter Selinger 2001-2017
</metadata>
<g transform="translate(0.000000,1380.000000) scale(0.100000,-0.100000)"
fill="#000000" stroke="none">
<path d="M7000 12658 c-36 -4 -83 -10 -105 -13 -58 -6 -218 -49 -305 -81 -115
-42 -295 -137 -400 -212 -175 -123 -387 -356 -489 -533 -30 -52 -31 -54 -78
-55 -115 -3 -207 -40 -282 -113 -49 -47 -99 -123 -106 -160 -2 -12 -6 -25 -9
-29 -3 -5 -10 -37 -15 -73 -6 -35 -13 -75 -16 -89 -2 -13 -7 -42 -10 -65 -3
-22 -8 -47 -10 -55 -56 -214 -2 -383 162 -511 11 -9 45 -24 74 -34 66 -21 66
-21 73 -66 28 -180 127 -421 259 -627 22 -34 38 -64 36 -65 -2 -1 -26 -11 -54
-21 -53 -20 -76 -22 -140 -14 -70 9 -152 -23 -224 -89 l-64 -57 -19 24 c-47
61 -106 112 -154 136 -135 66 -297 4 -330 -126 -21 -81 -1 -136 109 -298 76
-113 76 -105 16 -162 -47 -44 -140 -204 -155 -265 -15 -62 -13 -183 5 -242 21
-69 32 -91 78 -160 25 -37 36 -65 39 -100 16 -207 138 -404 303 -491 49 -26
80 -37 201 -70 l25 -7 1 -230 c1 -132 6 -250 13 -277 35 -147 150 -283 282
-332 l46 -17 -1 -136 -1 -135 -45 -25 c-54 -30 -118 -79 -143 -110 -10 -13
-25 -30 -33 -38 -8 -8 -26 -40 -40 -70 -33 -71 -41 -178 -20 -255 8 -30 14
-55 13 -56 -9 -3 -163 -99 -167 -104 -3 -3 -18 -14 -35 -24 -83 -53 -264 -204
-376 -316 -173 -173 -270 -290 -391 -475 -64 -97 -158 -265 -158 -281 0 -8 -4
-14 -10 -14 -5 0 -10 -4 -10 -9 0 -5 -14 -40 -31 -78 -17 -37 -37 -82 -45
-100 -8 -17 -14 -34 -14 -38 0 -4 -6 -21 -14 -38 -31 -70 -108 -337 -130 -453
-54 -279 -65 -623 -31 -896 3 -21 7 -53 9 -70 20 -165 92 -437 160 -613 40
-100 129 -291 174 -370 40 -70 131 -215 142 -225 3 -3 20 -27 39 -55 105 -151
267 -330 425 -468 39 -34 73 -65 76 -68 16 -19 221 -164 313 -222 181 -114
561 -286 688 -311 13 -3 48 -12 78 -21 58 -18 75 -22 131 -31 19 -3 39 -8 43
-11 4 -2 22 -6 40 -9 18 -2 43 -6 57 -8 14 -3 43 -8 65 -10 22 -3 58 -8 80
-11 162 -21 550 -21 659 1 11 2 44 7 71 9 28 3 93 15 145 25 125 26 135 29
165 40 14 5 25 7 25 5 0 -3 17 2 38 10 20 9 37 15 37 14 0 -5 107 28 200 63
419 156 839 446 1130 782 28 32 55 63 61 69 8 10 79 102 132 172 84 113 221
356 286 510 21 50 42 99 47 110 13 29 79 223 83 243 1 9 5 24 8 32 16 43 49
191 63 280 3 19 8 46 10 60 33 158 38 602 11 770 -3 14 -7 45 -10 70 -3 25 -8
56 -11 70 -3 14 -10 50 -16 80 -5 30 -12 66 -15 80 -7 36 -62 227 -81 280 -61
174 -222 514 -280 590 -6 8 -42 60 -79 115 -185 275 -468 553 -769 754 -60 41
-111 75 -113 76 -1 1 9 25 23 53 16 31 28 77 32 116 13 147 -60 271 -221 371
l-73 45 3 78 c2 42 3 101 3 129 l1 53 58 29 c77 39 143 99 191 176 28 44 48
65 68 69 77 20 157 113 183 214 17 66 20 213 6 279 -4 16 -8 37 -10 48 -2 11
-11 47 -20 80 -9 35 -15 106 -16 170 -1 61 -3 130 -5 155 -11 127 -16 178 -20
203 -3 15 -7 38 -9 52 -18 104 -43 203 -69 280 l-31 90 -2 265 c-1 314 -6 347
-59 450 -19 36 -21 40 -64 89 l-30 35 26 35 c15 20 34 43 43 51 8 8 23 26 33
40 50 73 126 188 135 206 10 19 21 22 75 23 143 2 289 96 350 226 24 49 51
160 63 255 3 25 7 52 10 60 3 8 8 33 11 55 3 22 8 58 12 81 38 209 -93 411
-305 469 -6 2 -17 32 -24 67 -15 78 -24 107 -67 233 -31 89 -99 241 -113 255
-3 3 -24 37 -47 75 -23 39 -49 80 -60 92 -10 12 -27 34 -38 49 -18 25 -70 87
-101 121 -7 7 -15 9 -19 5 -5 -4 -5 -2 -2 5 9 15 -144 148 -258 224 -49 34
-135 83 -190 109 -102 50 -308 123 -380 134 -22 3 -53 8 -70 11 -117 19 -310
25 -415 13z"/>
<path d="M3790 11769 c-103 -12 -246 -66 -294 -111 -12 -11 -32 -26 -46 -35
-66 -40 -191 -235 -206 -320 -3 -15 -9 -43 -14 -60 -8 -31 -6 -211 3 -243 21
-78 30 -107 38 -116 5 -6 6 -14 2 -17 -3 -4 -1 -7 5 -7 7 0 12 -9 12 -20 0
-11 3 -20 8 -20 4 0 13 -14 21 -31 8 -18 48 -66 90 -108 71 -71 153 -123 256
-162 43 -16 129 -29 198 -29 71 0 216 29 259 51 23 12 30 16 78 43 22 12 42
11 150 -5 156 -23 167 -23 179 -1 9 17 -17 102 -77 252 -8 20 -6 35 8 66 47
101 57 269 25 395 -31 122 -112 251 -205 329 -51 42 -177 113 -225 126 -16 4
-32 8 -35 9 -51 16 -154 22 -230 14z"/>
</g>
</svg>
